<?xml version="1.0" encoding="utf-8"?>
<!-- Generator: Adobe Illustrator 26.0.3, SVG Export Plug-In . SVG Version: 6.00 Build 0)  -->
<svg version="1.1" id="Слой_1" xmlns="http://www.w3.org/2000/svg" xmlns:xlink="http://www.w3.org/1999/xlink" x="0px" y="0px"
	 viewBox="0 0 500 500" style="enable-background:new 0 0 500 500;" xml:space="preserve">
<style type="text/css">
	.st0{fill:#FFFFFF;}
</style>
<path class="st0" d="M87.3,86.6c48.2,36.3,100.2,75.5,148.4,111.8V86.5H87.3V86.6z"/>
<rect x="265.3" y="86.5" class="st0" width="59.4" height="148.4"/>
<rect x="354.3" y="86.5" class="st0" width="59.3" height="148.4"/>
<path class="st0" d="M87.3,123.7v111.1h147.4C186.9,198.8,135.1,159.8,87.3,123.7z"/>
<path class="st0" d="M161.5,264.5H87.3v74.2C91.6,334.4,161.5,264.5,161.5,264.5z"/>
<path class="st0" d="M87.3,338.7v74.2h74.2C154.1,405.5,87.3,338.7,87.3,338.7z"/>
<path class="st0" d="M129.2,338.7c21.7,21.7,52.4,52.4,74.2,74.2h32.2V264.5h-32.2C203.4,264.5,140,328,129.2,338.7z"/>
<path class="st0" d="M399.2,294.2c-4.3-5.8-9.4-11-15.2-15.4c-8.6-6.5-18.7-11.2-29.7-13.5c-1.7-0.3-3.4-0.6-5.1-0.9
	c-3.3-0.5-6.7-0.7-10.1-0.7c-3.4,0-6.8,0.2-10.1,0.7c-1.5,0.2-3,0.4-4.4,0.7c-11,2.2-21,6.7-29.7,13.1c-6.1,4.5-11.4,9.8-15.9,15.9
	c-6.4,8.7-10.9,18.7-13.1,29.7c-0.3,1.4-0.5,2.9-0.7,4.4c-0.5,3.3-0.7,6.7-0.7,10.1s0.2,6.8,0.7,10.1c0.2,1.7,0.5,3.4,0.9,5
	c2.3,11,6.9,21.1,13.5,29.7c4.3,5.8,9.5,10.9,15.3,15.2c8.6,6.4,18.7,10.9,29.7,13.1c4.7,0.9,9.5,1.4,14.5,1.4
	c5.2,0,10.3-0.5,15.2-1.5c11-2.3,21-6.9,29.7-13.5c5.5-4.2,10.5-9.1,14.7-14.7c6.5-8.6,11.2-18.7,13.5-29.7c1-4.9,1.6-10,1.6-15.2
	c0-5-0.5-9.8-1.4-14.5C410.1,312.9,405.6,302.8,399.2,294.2z M381.4,353.5c-4.5,12.5-14.5,22.5-27,27c-4.7,1.7-9.8,2.7-15.2,2.7
	c-5.1,0-9.9-0.8-14.5-2.4c-12.9-4.4-23.1-14.5-27.7-27.3c-0.8-2.4-1.5-4.8-2-7.3c-0.5-2.6-0.7-5.2-0.7-7.9s0.2-5.3,0.7-7.9
	c0.4-2.3,1-4.5,1.7-6.6c4.5-13.1,14.9-23.5,28-28c2.1-0.7,4.3-1.3,6.6-1.7c2.5-0.5,5.2-0.7,7.9-0.7s5.3,0.2,7.9,0.7
	c2.5,0.5,5,1.1,7.3,2c12.8,4.6,22.9,14.8,27.3,27.7c1.5,4.5,2.4,9.4,2.4,14.5C384,343.6,383.1,348.8,381.4,353.5z"/>
</svg>
